# xmcd
#
# Track frame offsets:
#	150
#	5775
#	23485
#	41106
#	59580
#	82654
#	98898
#	115471
#	135960
#	153785
#	171785
#	185245
#	208737
#	231023
#
# Disc length: 3362 seconds
# Revision: 0
# Processed by: cddbd v1.5.2PL0 Copyright (c) Steve Scherf et al.
# Submitted via: dBpowerAMP V12.0
#
DISCID=b30d200e
DTITLE=Various Artist - King Of Hearts
DYEAR=2011
DGENRE=Hip Hop
TTITLE0=Lloyd featuring Game - Intro (MDMA)
TTITLE1=Lloyd featuring Andre 3000, Narrated by Lil Wayne - Dedication To My Ex (Miss That)
TTITLE2=Lloyd featuring Awesome Jones!!! - Cupid
TTITLE3=Lloyd featuring Chris Brown and Vega - Luv Me Girl
TTITLE4=Lloyd - Naked
TTITLE5=Lloyd - Jigsaw
TTITLE6=Lloyd featuring Titi Boi and Salo - Bang!!!!
TTITLE7=Lloyd featuring Trey Songs and Young Jeezy - Be The One
TTITLE8=Lloyd - Shake It 4 Daddy
TTITLE9=Lloyd - Lay It Down
TTITLE10=Lloyd - Angel
TTITLE11=Lloyd - This Is 4 My Baby
TTITLE12=Lloyd - You II
TTITLE13=Lloyd featuring R. Kelly, Keri Hilson and K'naan - World Cry
EXTD=
EXTT0=
EXTT1=
EXTT2=
EXTT3=
EXTT4=
EXTT5=
EXTT6=
EXTT7=
EXTT8=
EXTT9=
EXTT10=
EXTT11=
EXTT12=
EXTT13=
PLAYORDER=
